<svg width="72" height="72" viewBox="0 0 72 72" fill="none" xmlns="http://www.w3.org/2000/svg">
<path d="M36 57.2333L29.63 63.6033C26.8141 66.4185 22.9952 68 19.0134 68C15.0315 68 11.2127 66.4185 8.39674 63.6033C5.58151 60.7873 4 56.9685 4 52.9866C4 49.0048 5.58151 45.186 8.39674 42.37L21.1367 29.63C23.9527 26.8148 27.7715 25.2333 31.7533 25.2333C35.7352 25.2333 39.554 26.8148 42.37 29.63M35.9992 14.7667L42.3692 8.39674C45.1852 5.58151 49.004 4 52.9858 4C56.9677 4 60.7865 5.58151 63.6025 8.39674C66.4177 11.2127 67.9992 15.0315 67.9992 19.0134C67.9992 22.9952 66.4177 26.8141 63.6025 29.63L50.8625 42.37C48.0465 45.1852 44.2277 46.7667 40.2459 46.7667C36.264 46.7667 32.4452 45.1852 29.6292 42.37" stroke="currentColor" stroke-width="8" stroke-linecap="round"/>
</svg>
