<svg width="70" height="64" viewBox="0 0 70 64" fill="none" xmlns="http://www.w3.org/2000/svg">
<path d="M65.324 0.202734L21 15.9714V40.381L23.618 41.3121L19.6735 49.172C19.2248 50.0657 18.9742 51.045 18.9384 52.0435C18.9027 53.0421 19.0828 54.0367 19.4664 54.9599C19.8501 55.8831 20.4284 56.7135 21.1622 57.3946C21.896 58.0758 22.7681 58.5919 23.7195 58.908L38.0135 63.6539C39.6125 64.1733 41.3451 64.1063 42.8989 63.465C44.4526 62.8236 45.7252 61.6502 46.487 60.1564L51.0475 51.069L65.324 56.1497C65.8519 56.3373 66.4174 56.3959 66.9727 56.3205C67.5281 56.245 68.0572 56.0378 68.5154 55.7162C68.9737 55.3947 69.3477 54.9681 69.6061 54.4725C69.8644 53.9769 69.9995 53.4268 70 52.8683V3.48409C69.9995 2.92564 69.8644 2.37548 69.6061 1.87988C69.3477 1.38429 68.9737 0.957761 68.5154 0.636183C68.0572 0.314605 67.5281 0.107385 66.9727 0.0319558C66.4174 -0.0434733 65.8519 0.0150951 65.324 0.202734ZM40.2255 57.0389L25.935 52.293L30.2575 43.6763L44.4045 48.7117L40.2255 57.0389ZM7 40.381H14V15.9714H7C3.1395 15.9714 0 19.0993 0 22.9456V33.4069C0 37.2531 3.1395 40.381 7 40.381Z" fill="currentColor"/>
</svg>
