<svg width="70" height="64" viewBox="0 0 70 64" fill="none" xmlns="http://www.w3.org/2000/svg">
<path d="M35 0C36.6877 0 38.3064 0.674284 39.4998 1.87452C40.6932 3.07475 41.3636 4.70261 41.3636 6.4C41.3636 8.768 40.0909 10.848 38.1818 11.936V16H41.3636C47.2707 16 52.9359 18.36 57.1128 22.5608C61.2898 26.7616 63.6364 32.4592 63.6364 38.4H66.8182C67.6621 38.4 68.4714 38.7371 69.0681 39.3373C69.6648 39.9374 70 40.7513 70 41.6V51.2C70 52.0487 69.6648 52.8626 69.0681 53.4627C68.4714 54.0629 67.6621 54.4 66.8182 54.4H63.6364V57.6C63.6364 59.2974 62.9659 60.9253 61.7725 62.1255C60.5791 63.3257 58.9605 64 57.2727 64H12.7273C11.0395 64 9.42092 63.3257 8.2275 62.1255C7.03409 60.9253 6.36364 59.2974 6.36364 57.6V54.4H3.18182C2.33795 54.4 1.52864 54.0629 0.931933 53.4627C0.335226 52.8626 0 52.0487 0 51.2V41.6C0 40.7513 0.335226 39.9374 0.931933 39.3373C1.52864 38.7371 2.33795 38.4 3.18182 38.4H6.36364C6.36364 32.4592 8.71022 26.7616 12.8872 22.5608C17.0641 18.36 22.7293 16 28.6364 16H31.8182V11.936C29.9091 10.848 28.6364 8.768 28.6364 6.4C28.6364 4.70261 29.3068 3.07475 30.5002 1.87452C31.6936 0.674284 33.3123 0 35 0ZM20.6818 35.2C18.5721 35.2 16.5489 36.0429 15.0571 37.5431C13.5653 39.0434 12.7273 41.0783 12.7273 43.2C12.7273 45.3217 13.5653 47.3566 15.0571 48.8569C16.5489 50.3571 18.5721 51.2 20.6818 51.2C22.7915 51.2 24.8148 50.3571 26.3065 48.8569C27.7983 47.3566 28.6364 45.3217 28.6364 43.2C28.6364 41.0783 27.7983 39.0434 26.3065 37.5431C24.8148 36.0429 22.7915 35.2 20.6818 35.2ZM49.3182 35.2C47.2085 35.2 45.1852 36.0429 43.6935 37.5431C42.2017 39.0434 41.3636 41.0783 41.3636 43.2C41.3636 45.3217 42.2017 47.3566 43.6935 48.8569C45.1852 50.3571 47.2085 51.2 49.3182 51.2C51.4279 51.2 53.4511 50.3571 54.9429 48.8569C56.4347 47.3566 57.2727 45.3217 57.2727 43.2C57.2727 41.0783 56.4347 39.0434 54.9429 37.5431C53.4511 36.0429 51.4279 35.2 49.3182 35.2Z" fill="currentColor"/>
</svg>
