<svg width="82" height="64" viewBox="0 0 82 64" fill="none" xmlns="http://www.w3.org/2000/svg">
<path d="M41.0032 14.4516L36.0171 14.789C35.6994 14.8105 35.3918 14.6802 35.1845 14.4385C31.4503 10.0834 22.0768 0.369171 12.6355 0.0102273C12.3011 -0.00248553 11.9938 0.160404 11.8269 0.450402C10.4932 2.76679 4.9951 13.7823 11.6844 28.0092C11.8353 28.3301 11.814 28.7142 11.6171 29.0092C9.68097 31.9109 8.43297 33.6667 8.04482 37.0233C7.99102 37.4885 7.64169 37.8714 7.17858 37.941L1.05409 38.8613C0.48386 38.9469 0.10406 39.4959 0.224882 40.0597L0.672603 42.1491C0.783086 42.6646 1.27492 43.0058 1.79655 42.9288L7.19328 42.1315C7.72118 42.0536 8.2173 42.4038 8.32053 42.9274L8.57813 44.2338C8.65977 44.6478 8.47275 45.0684 8.11072 45.2852L3.04479 48.3183C2.58881 48.5913 2.42604 49.1733 2.67422 49.6432L3.6741 51.5366C3.94387 52.0475 4.58913 52.2241 5.08148 51.9219L9.20774 49.3893C9.71549 49.0776 10.3799 49.2777 10.6617 49.8026C15.7164 59.2178 27.3957 64 41.0032 64C54.6108 64 66.2901 59.2178 71.3448 49.8026C71.6266 49.2777 72.291 49.0776 72.7988 49.3893L76.925 51.9219C77.4174 52.2241 78.0626 52.0475 78.3324 51.5366L79.3323 49.6432C79.5805 49.1733 79.4177 48.5913 78.9617 48.3183L73.8958 45.2852C73.5337 45.0684 73.3467 44.6478 73.4284 44.2338L73.686 42.9274C73.7892 42.4038 74.2853 42.0536 74.8132 42.1315L80.2099 42.9288C80.7316 43.0058 81.2234 42.6646 81.3339 42.1491L81.7816 40.0597C81.9024 39.4959 81.5226 38.9469 80.9524 38.8613L74.8279 37.941C74.3648 37.8714 74.0155 37.4885 73.9617 37.0233C73.5735 33.6667 72.3255 31.9109 70.3894 29.0092C70.1925 28.7142 70.1712 28.3301 70.3221 28.0092C77.0114 13.7823 71.5133 2.76678 70.1796 0.450401C70.0127 0.160403 69.7054 -0.00248553 69.371 0.0102273C59.9297 0.369171 50.5562 10.0834 46.822 14.4385C46.6147 14.6802 46.3071 14.8105 45.9894 14.789L41.0032 14.4516ZM28.6162 26.8387C29.7112 26.8387 30.7615 27.2737 31.5358 28.0481C32.3102 28.8224 32.7452 29.8727 32.7452 30.9677C32.7452 32.0628 32.3102 33.1131 31.5358 33.8874C30.7615 34.6618 29.7112 35.0968 28.6162 35.0968C27.5211 35.0968 26.4708 34.6618 25.6965 33.8874C24.9221 33.1131 24.4871 32.0628 24.4871 30.9677C24.4871 29.8727 24.9221 28.8224 25.6965 28.0481C26.4708 27.2737 27.5211 26.8387 28.6162 26.8387ZM53.3903 26.8387C54.4854 26.8387 55.5357 27.2737 56.31 28.0481C57.0844 28.8224 57.5194 29.8727 57.5194 30.9677C57.5194 32.0628 57.0844 33.1131 56.31 33.8874C55.5357 34.6618 54.4854 35.0968 53.3903 35.0968C52.2953 35.0968 51.245 34.6618 50.4707 33.8874C49.6963 33.1131 49.2613 32.0628 49.2613 30.9677C49.2613 29.8727 49.6963 28.8224 50.4707 28.0481C51.245 27.2737 52.2953 26.8387 53.3903 26.8387ZM37.6043 40.6756C37.2694 40.0105 37.7528 39.2258 38.4975 39.2258H43.509C44.2537 39.2258 44.7371 40.0105 44.4022 40.6756L42.4241 44.6036C42.3073 44.8355 42.2822 45.1051 42.3738 45.3481C43.2955 47.7931 45.5195 49.5484 48.2291 49.5484C49.8717 49.5484 51.447 48.8958 52.6086 47.7343C53.5327 46.8102 54.1346 45.6241 54.3421 44.3506C54.4309 43.8054 54.8703 43.3548 55.4226 43.3548H55.4871C56.0394 43.3548 56.4934 43.8042 56.4267 44.3524C56.2049 46.175 55.3801 47.8825 54.0684 49.1942C52.5197 50.7429 50.4192 51.6129 48.2291 51.6129C45.7463 51.6129 43.529 50.5248 42.0026 48.838C41.4931 48.2749 40.5134 48.2749 40.0039 48.838C38.4775 50.5248 36.2602 51.6129 33.7774 51.6129C31.5873 51.6129 29.4868 50.7429 27.9381 49.1942C26.6264 47.8825 25.8016 46.175 25.5798 44.3524C25.5131 43.8042 25.9671 43.3548 26.5194 43.3548H26.5839C27.1362 43.3548 27.5756 43.8055 27.6644 44.3506C27.8719 45.6241 28.4738 46.8102 29.3979 47.7343C30.5595 48.8958 32.1348 49.5484 33.7774 49.5484C36.487 49.5484 38.711 47.7931 39.6327 45.3481C39.7243 45.1051 39.6992 44.8355 39.5824 44.6036L37.6043 40.6756Z" fill="currentColor"/>
</svg>
