<svg width="60" height="80" viewBox="0 0 60 80" fill="none" xmlns="http://www.w3.org/2000/svg">
<path d="M0 11.9989V67.9989C0 69.0597 0.421428 70.0771 1.17157 70.8273C1.92172 71.5774 2.93913 71.9989 4 71.9989H16V63.9989H8V15.9989H16V7.99889H4C2.93913 7.99889 1.92172 8.42032 1.17157 9.17046C0.421428 9.92061 0 10.938 0 11.9989ZM56.968 8.11889L24.968 0.118895C24.3785 -0.0281417 23.7632 -0.0389463 23.1688 0.0873018C22.5745 0.21355 22.0168 0.473533 21.5379 0.847517C21.0591 1.2215 20.6717 1.69966 20.4052 2.2457C20.1387 2.79174 20.0002 3.3913 20 3.99889V75.9989C19.9986 76.607 20.1361 77.2073 20.4021 77.7542C20.6681 78.301 21.0556 78.7799 21.5348 79.1542C22.0141 79.5285 22.5725 79.7884 23.1675 79.9139C23.7625 80.0395 24.3783 80.0275 24.968 79.8789L56.968 71.8789C57.8337 71.6629 58.6024 71.1638 59.1518 70.4607C59.7012 69.7577 59.9997 68.8911 60 67.9989V11.9989C59.9997 11.1066 59.7012 10.2401 59.1518 9.53704C58.6024 8.83399 57.8337 8.33482 56.968 8.11889ZM40 40.7509C39.9539 41.7808 39.5124 42.7533 38.7673 43.4658C38.0221 44.1783 37.0309 44.5759 36 44.5759C34.969 44.5759 33.9778 44.1783 33.2327 43.4658C32.4876 42.7533 32.0461 41.7808 32 40.7509V39.2429C32.0005 38.182 32.4224 37.1648 33.173 36.415C33.9235 35.6653 34.9411 35.2443 36.002 35.2449C37.0628 35.2454 38.08 35.6673 38.8298 36.4179C39.5796 37.1684 40.0005 38.186 40 39.2469V40.7509Z" fill="currentColor"/>
</svg>
