<svg width="66" height="64" viewBox="0 0 66 64" fill="none" xmlns="http://www.w3.org/2000/svg">
<path d="M21.0706 16.4539L49.7085 45.3769L38.0151 57.1834H60.0014C60.8965 57.1834 61.7549 57.5424 62.3877 58.1816C63.0206 58.8208 63.3762 59.6877 63.3762 60.5917C63.3762 61.4956 63.0206 62.3625 62.3877 63.0017C61.7549 63.6409 60.8965 64 60.0014 64H22.5184C21.1763 63.9988 19.8896 63.4594 18.9412 62.5003L1.97979 45.3769C1.35275 44.7439 0.855349 43.9923 0.515986 43.1651C0.176624 42.3379 0.00195312 41.4513 0.00195312 40.5559C0.00195312 39.6605 0.176624 38.7738 0.515986 37.9466C0.855349 37.1194 1.35275 36.3678 1.97979 35.7348L21.0706 16.4539ZM44.9333 1.99582L64.0241 21.2733C64.6512 21.9063 65.1486 22.6579 65.4879 23.4851C65.8273 24.3123 66.002 25.1989 66.002 26.0944C66.002 26.9898 65.8273 27.8764 65.4879 28.7036C65.1486 29.5308 64.6512 30.2824 64.0241 30.9154L54.4804 40.5542L25.8458 11.6346L35.3896 1.99582C36.6553 0.717898 38.3717 0 40.1614 0C41.9511 0 43.6676 0.717898 44.9333 1.99582Z" fill="currentColor"/>
</svg>
