<svg width="59" height="64" viewBox="0 0 59 64" fill="none" xmlns="http://www.w3.org/2000/svg">
<path d="M4.54041 54.8509C4.54041 57.2774 5.49673 59.6045 7.19898 61.3203C8.90124 63.0361 11.21 64 13.6173 64H26.6654C26.8159 64 26.9602 63.9398 27.0666 63.8325C27.173 63.7253 27.2327 63.5798 27.2327 63.4282V37.1244C27.2327 36.9728 27.173 36.8273 27.0666 36.7201C26.9602 36.6128 26.8159 36.5526 26.6654 36.5526H5.67503C5.37411 36.5526 5.08552 36.6731 4.87274 36.8876C4.65995 37.102 4.54041 37.3929 4.54041 37.6962V54.8509ZM27.2327 31.4062V15.967H31.7712V31.4062C31.7712 31.5579 31.831 31.7033 31.9373 31.8105C32.0437 31.9178 32.188 31.978 32.3385 31.978H52.1943C52.9674 31.9781 53.7348 31.8451 54.4635 31.5849C55.7896 31.1103 56.9377 30.2339 57.7502 29.0758C58.5627 27.9177 59 26.5346 59.002 25.1162V22.8289C59.002 21.009 58.2847 19.2637 57.008 17.9768C55.7313 16.69 53.9998 15.967 52.1943 15.967H46.4446C46.3952 15.9662 46.3469 15.9525 46.3044 15.927C46.2619 15.9016 46.2267 15.8655 46.2023 15.8221C46.178 15.7788 46.1653 15.7298 46.1655 15.68C46.1657 15.6302 46.1788 15.5813 46.2035 15.5382C47.5166 13.3036 47.9431 10.6513 47.3974 8.11312C46.8518 5.57491 45.3743 3.33844 43.2614 1.85216C41.1484 0.365876 38.5561 -0.260343 36.0043 0.0990701C33.4525 0.458483 31.1298 1.77695 29.502 3.79011C27.8741 1.77695 25.5514 0.458483 22.9996 0.0990701C20.4478 -0.260343 17.8555 0.365876 15.7425 1.85216C13.6296 3.33844 12.1521 5.57491 11.6065 8.11312C11.0609 10.6513 11.4873 13.3036 12.8004 15.5382C12.8251 15.5813 12.8382 15.6302 12.8384 15.68C12.8386 15.7298 12.8259 15.7788 12.8016 15.8221C12.7772 15.8655 12.742 15.9016 12.6995 15.927C12.6571 15.9525 12.6087 15.9662 12.5593 15.967H6.80965C5.00413 15.967 3.27257 16.69 1.99588 17.9768C0.71919 19.2637 0.00195313 21.009 0.00195312 22.8289V25.1162C0.00395604 26.5346 0.441196 27.9177 1.25372 29.0758C2.06625 30.2339 3.21428 31.1103 4.54041 31.5849C5.26912 31.8451 6.03655 31.9781 6.80965 31.978H26.6654C26.8159 31.978 26.9602 31.9178 27.0666 31.8105C27.173 31.7033 27.2327 31.5579 27.2327 31.4062ZM31.7712 10.2488C31.7712 9.11788 32.1039 8.01232 32.7273 7.07197C33.3506 6.13161 34.2367 5.39869 35.2733 4.96589C36.3099 4.5331 37.4506 4.41986 38.551 4.6405C39.6515 4.86113 40.6623 5.40574 41.4557 6.20545C42.2491 7.00515 42.7894 8.02404 43.0083 9.13326C43.2272 10.2425 43.1149 11.3922 42.6855 12.4371C42.2561 13.482 41.529 14.375 40.5961 15.0034C39.6631 15.6317 38.5663 15.967 37.4443 15.967H31.7712V10.2488ZM21.154 4.54492C21.9312 4.48876 22.7116 4.59459 23.4464 4.8558C24.1813 5.11701 24.8549 5.52801 25.4252 6.06317C25.9955 6.59833 26.4503 7.24617 26.7613 7.9663C27.0723 8.68644 27.2328 9.46343 27.2327 10.2488V15.967H21.5596C20.0927 15.9632 18.6843 15.3869 17.6299 14.3588C16.5755 13.3308 15.9572 11.9311 15.9048 10.4534C15.8523 8.97577 16.3697 7.53507 17.3484 6.43368C18.3272 5.3323 19.6911 4.65586 21.154 4.54635V4.54492ZM32.3385 64H45.3866C47.7939 64 50.1027 63.0361 51.8049 61.3203C53.5072 59.6045 54.4635 57.2774 54.4635 54.8509V37.6962C54.4635 37.3929 54.344 37.102 54.1312 36.8876C53.9184 36.6731 53.6298 36.5526 53.3289 36.5526H32.3385C32.188 36.5526 32.0437 36.6128 31.9373 36.7201C31.831 36.8273 31.7712 36.9728 31.7712 37.1244V63.4282C31.7712 63.5798 31.831 63.7253 31.9373 63.8325C32.0437 63.9398 32.188 64 32.3385 64Z" fill="currentColor"/>
</svg>
