<svg width="80" height="64" viewBox="0 0 80 64" fill="none" xmlns="http://www.w3.org/2000/svg">
<path d="M25.077 4.00487C25.627 2.4425 24.8145 0.730141 23.252 0.180186C21.6895 -0.369769 19.977 0.442665 19.427 2.00504L18.0895 5.77973L16.852 2.05503C16.327 0.480161 14.627 -0.369769 13.052 0.155188C11.477 0.680145 10.627 2.38001 11.152 3.95488L12.1895 7.07962L8.76445 4.57983C7.42695 3.60491 5.55195 3.90488 4.57695 5.24227C3.60195 6.57967 3.90195 8.45451 5.23945 9.42943L8.77695 12.0042H6.00195C2.68945 12.0042 0.00195312 14.6915 0.00195312 18.0037V58.0005C0.00195312 61.3127 2.68945 64 6.00195 64H25.077C24.402 62.8251 24.002 61.4627 24.002 60.0003V32.0026C24.002 28.2654 26.5645 25.1282 30.027 24.2532C30.252 20.3785 32.1645 16.9788 35.0395 14.7415C33.9645 13.0916 32.1145 12.0042 30.002 12.0042H27.227L30.7645 9.42943C32.102 8.45451 32.402 6.57967 31.427 5.24227C30.452 3.90488 28.577 3.60491 27.2395 4.57983L24.0645 6.89214L25.077 4.00487ZM45.4395 23.1908L49.1395 28.0029H43.002C41.3395 28.0029 40.002 26.6655 40.002 25.0032C40.002 23.3658 41.352 22.0034 43.027 22.0034C43.977 22.0034 44.8645 22.4409 45.4395 23.1908ZM34.002 25.0032C34.002 26.0531 34.177 27.0655 34.5145 28.0029H34.002C30.6895 28.0029 28.002 30.6902 28.002 34.0024V44.0016H52.002V32.0026H56.002V44.0016H80.002V34.0024C80.002 30.6902 77.3145 28.0029 74.002 28.0029H73.4895C73.827 27.0655 74.002 26.0531 74.002 25.0032C74.002 20.0161 69.9395 16.0039 64.977 16.0039C62.177 16.0039 59.527 17.3038 57.8145 19.5286L54.002 24.4782L50.1895 19.5286C48.477 17.3038 45.8145 16.0039 43.027 16.0039C38.0645 16.0039 34.002 20.0161 34.002 25.0032ZM28.002 58.0005C28.002 61.3127 30.6895 64 34.002 64H52.002V48.0013H28.002V58.0005ZM56.002 64H74.002C77.3145 64 80.002 61.3127 80.002 58.0005V48.0013H56.002V64ZM68.002 25.0032C68.002 26.6655 66.6645 28.0029 65.002 28.0029H58.8645L62.5645 23.1908C63.1395 22.4534 64.027 22.0034 64.977 22.0034C66.652 22.0034 68.002 23.3658 68.002 25.0032Z" fill="currentColor"/>
</svg>
