<svg width="64" height="64" fill="red" viewBox="0 0 59 64" xmlns="http://www.w3.org/2000/svg">
    <path d="M22.7 61.7V45.7C22.7 44.6 23.8 43.4 25 43.4H34C35.2 43.4 36.3 44.6 36.3 45.7V61.7C36.3 62.3 36.5 62.9 37 63.3 37.4 63.8 38 64 38.6 64H56.7C57.3 64 57.9 63.8 58.3 63.3 58.8 62.9 59 62.3 59 61.7V29.7C59 29.4 58.9 29.1 58.8 28.8 58.7 28.6 58.5 28.3 58.3 28.1L52.2 21.9V6.9C52.2 6.3 52 5.7 51.5 5.2 51.1 4.8 50.5 4.6 49.9 4.6H45.4C44.8 4.6 44.2 4.8 43.8 5.2 43.4 5.7 43.1 6.3 43.1 6.9V12.8L31.1.7C30.9.5 30.6.3 30.4.2 30.1.1 29.8 0 29.5 0 29.2 0 28.9.1 28.6.2 28.4.3 28.1.5 27.9.7L.7 28.1C.5 28.3.3 28.6.2 28.8.1 29.1-0 29.4 0 29.7V61.7C0 62.3.2 62.9.7 63.3 1.1 63.8 1.7 64 2.3 64H20.4C21 64 21.6 63.8 22 63.3 22.5 62.9 22.7 62.3 22.7 61.7Z" fill="currentColor"/>
  </svg>
