<svg xmlns="http://www.w3.org/2000/svg" viewBox="10 10 110 110">
  <path fill="currentColor" d="m92.268 7.57-62.479 6.84.924 8.43-8.184.896.87 7.934-7.934.867 6.865 62.727 8.182-.897.842 7.688-8.182.894 5.045 48.373 86.277-9.443-10.34-94.461 7.688-.842-3.447-31.486-15.124 1.654zm-7.07 10.059.874 7.984 15.198-1.664 1.69 15.455-7.728.846v.002L79.78 41.943l-.845-7.728-30.91 3.385.845 7.726h-.002l.818 7.47-7.986.876.03.258 2.537 23.181.845 7.73 7.73-.845.028.254.818 7.473 15.711-1.719.903 8.242L85.5 96.582l-.846-7.73-7.73.847-.875-7.986 15.715-1.72 1.72 15.714 7.955-.87 4.434 38.985-70.47 7.565L31.966 110l7.984-.873-.846-7.729 7.73-.845-.817-7.471-7.73.848-.876-7.987-7.726.846-5.104-46.625 7.984-.875-.843-7.726 7.726-.846-.875-7.985zm3.689 31.137 1.748 15.97-8.242.903-1.75-15.971zm-23.461 2.568 1.748 15.97-8.242.901-1.748-15.969zm14.662 61.396-8.016.877.897 8.18-7.946.87.866 7.904 8.013-.877-.863-7.887 7.945-.87zm9.998 15.1-8.014.877h-.002l-8.12.89.82 7.495 8.12-.89h.003l8.011-.878z">
</svg>
