<svg width="64" height="64" viewBox="0 0 64 64" fill="none" xmlns="http://www.w3.org/2000/svg">
<path d="M61.5089 19.6C59.9029 15.7753 57.5665 12.2988 54.6301 9.36434C51.7023 6.42485 48.2246 4.08776 44.3942 2.48578C40.4703 0.8367 36.2543 -0.00860735 31.9966 6.60751e-05H31.8535C27.5229 0.0214946 23.3355 0.878636 19.3915 2.56435C15.594 4.18277 12.1489 6.524 9.2487 9.4572C6.34065 12.385 4.03107 15.8493 2.44865 19.6572C0.806028 23.6169 -0.0263036 27.8645 0.000633526 32.15C0.0221074 37.1072 1.21033 42.0286 3.42929 46.4286V57.2857C3.42929 59.1 4.90383 60.5714 6.71479 60.5714H17.5805C22.0104 62.8021 26.8988 63.9758 31.8606 64H32.011C36.2914 64 40.4359 63.1714 44.3441 61.55C48.1551 59.9671 51.6199 57.6573 54.5442 54.75C57.4932 51.8286 59.8124 48.4143 61.4373 44.6072C63.1194 40.6643 63.9783 36.4715 63.9998 32.1429C64.0141 27.7929 63.1695 23.5715 61.5089 19.6ZM17.7094 35.4286C15.8197 35.4286 14.2807 33.8929 14.2807 32C14.2807 30.1072 15.8197 28.5715 17.7094 28.5715C19.5991 28.5715 21.138 30.1072 21.138 32C21.138 33.8929 19.6062 35.4286 17.7094 35.4286ZM31.9966 35.4286C30.107 35.4286 28.568 33.8929 28.568 32C28.568 30.1072 30.107 28.5715 31.9966 28.5715C33.8863 28.5715 35.4253 30.1072 35.4253 32C35.4253 33.8929 33.8863 35.4286 31.9966 35.4286ZM46.2839 35.4286C44.3942 35.4286 42.8553 33.8929 42.8553 32C42.8553 30.1072 44.3942 28.5715 46.2839 28.5715C48.1736 28.5715 49.7126 30.1072 49.7126 32C49.7126 33.8929 48.1736 35.4286 46.2839 35.4286Z" fill="currentColor"/>
</svg>
