<svg viewBox="0 0 108 160" xmlns="http://www.w3.org/2000/svg">
  <defs>
    <path id="pupil" d="M73.8 49.8C73.8 51 72.9 52 71.6 52 69.9 52 69.4 50.5 69.4 49.8 69.4 48.6 70.4 47.6 71.6 47.6 72.4 47.6 73.8 48 73.8 49.8Z" fill="#fff" />
  </defs>
<path d="M56 14.1 58.6 12.1C59 12.5 59.4 12.9 59.7 13.1 70.2 19.2 82.5 4.6 82.5 4.6 80.4 6 73.6 2.4 68.3.6 62.9-1.2 58.7 1.7 57.6 3.6 56.5 5.5 57.2 8.2 57.2 8.2 65.4 1.1 74.9 6.6 74.9 6.6 65.6 3.7 60.2 8 55.5 11.7L56 14.1Z" fill="#D24FE1" />
<use href="#pupil" />
<use href="#pupil" transform="translate(-31,0)" />
<path fill-rule="evenodd" d="M53.6 3C53.5 2.5 53.1 2.2 52.6 2.2H49C48.3 2.2 47.8 3 48.1 3.6L51.7 11.1C52.1 11.9 52.3 12.8 52.3 13.7V19C35 19.8 23.7 33.2 18.9 51.6 16.6 60.2 12.6 68.3 8 76 2.9 84.4 0 94.2 0 104.8 0 135.3 24.2 160 54 160 83.8 160 108 135.3 108 104.8 108 94.2 105.1 84.4 100 76 95.4 68.3 91.4 60.2 89.1 51.6 84.4 33.7 73.6 20.6 57.2 19.1L56 14.1 55.5 11.7 53.6 3ZM47.4 52C47.4 56.9 43.4 60.8 38.6 60.8 33.7 60.8 29.8 56.9 29.8 52 29.8 47.1 33.7 43.2 38.6 43.2 43.4 43.2 47.4 47.1 47.4 52ZM69.4 60.8C74.3 60.8 78.2 56.9 78.2 52 78.2 47.1 74.3 43.2 69.4 43.2 64.6 43.2 60.6 47.1 60.6 52 60.6 56.9 64.6 60.8 69.4 60.8ZM54 75.1C48.7 75.1 44.2 71.4 43.2 66.3 43.2 64.6 44.5 64.1 45.2 64.1H62.8C64 64.1 65 65.1 64.8 66.3 63.8 71.4 59.3 75.1 54 75.1ZM27.6 115.9Z" fill="#F5F5F5"/>
<path d="M54 142.4C39.4 142.4 27.6 130.5 27.6 115.9 27.6 101.3 39.4 89.5 54 89.5 68.6 89.5 80.4 101.3 80.4 115.9 80.4 130.5 68.6 142.4 54 142.4Z" fill="#D24FE1"/>
</svg>
