<svg width="64" height="64" viewBox="0 0 64 64" fill="none" xmlns="http://www.w3.org/2000/svg">
<path fill-rule="evenodd" clip-rule="evenodd" d="M53.2314 0.231085L54.1033 0.340497C56.4078 0.658477 59.4577 1.08587 61.1843 2.81596C62.5998 4.22807 63.1435 6.52573 63.4683 8.57722L63.6598 9.89702C64.0906 13.0084 64.2034 17.0841 63.4683 21.611C62.0186 30.5452 57.2626 41.2062 45.3195 49.46C45.2545 50.1028 45.2511 50.7524 45.2648 51.4021L45.299 52.3731C45.3537 53.8673 45.4084 55.3614 44.9912 56.8111C44.3416 59.0678 42.0268 60.5551 39.8625 61.6219L38.8026 62.1245L37.4349 62.7263C34.8774 63.8136 31.4241 64.9282 29.2597 62.7605C27.9605 61.4646 27.4271 59.5636 26.9928 57.6728L26.8321 56.965C26.6485 56.072 26.4202 55.1888 26.1483 54.3186C25.9774 53.8171 25.7927 53.3099 25.5944 52.7971C25.3762 53.065 25.1445 53.3218 24.9003 53.5664C23.7207 54.746 21.9599 55.57 20.5101 56.1478C18.9271 56.7735 17.1354 57.3206 15.4772 57.7719L14.6258 57.9976L12.9949 58.4045L11.5178 58.7464L9.75009 59.1225L8.6457 59.3379C8.09491 59.4399 7.52758 59.4063 6.99263 59.2402C6.45769 59.074 5.9712 58.7802 5.57511 58.3842C5.17902 57.9881 4.88523 57.5016 4.71907 56.9666C4.55292 56.4317 4.51938 55.8644 4.62136 55.3136L4.91541 53.8399L5.44196 51.4533L5.86593 49.7096L6.18733 48.4787C6.63866 46.8238 7.18572 45.0322 7.81485 43.4525C8.38926 41.9994 9.21328 40.2385 10.3929 39.0589L10.6664 38.7957L10.4476 38.7068C9.86317 38.4848 9.27131 38.283 8.67305 38.1016L7.72595 37.8109C5.35306 37.0929 2.81605 36.3202 1.23983 34.7405C-0.674896 32.8292 -0.0286778 29.9195 0.894492 27.4988L1.2706 26.5619L1.87579 25.1943L2.3784 24.1343C3.44518 21.9734 4.93251 19.6587 7.18914 19.009C8.38584 18.6671 9.63041 18.6466 10.8818 18.6808L11.634 18.7047C12.6119 18.7389 13.5864 18.7765 14.5403 18.6842C22.7941 6.73772 33.455 1.98169 42.3893 0.531969C45.9733 -0.0558683 49.6203 -0.157077 53.2314 0.231085ZM19.6827 43.5688C19.1448 43.1701 18.5016 42.9381 17.833 42.9016C17.1644 42.8651 16.4998 43.0258 15.9216 43.3636L15.5455 43.6167L15.2276 43.9004L14.8002 44.4407C13.9112 45.7263 13.4052 47.5042 13.012 49.1659L12.6427 50.7661L12.4683 51.4944L13.1214 51.3371L14.5506 51.0089C16.5268 50.5473 18.7185 49.9489 20.0657 48.7351C20.6514 48.1497 21.0047 47.3716 21.0601 46.5453C21.1154 45.719 20.869 44.9007 20.3665 44.2424L20.0862 43.921L20.0041 43.8423L19.6827 43.5688ZM44.2425 19.7236C43.6076 19.0885 42.8538 18.5847 42.0242 18.2409C41.1945 17.897 40.3053 17.72 39.4073 17.7199C38.5092 17.7197 37.62 17.8964 36.7902 18.2399C35.9605 18.5835 35.2065 19.087 34.5714 19.7219C33.9363 20.3568 33.4324 21.1106 33.0886 21.9402C32.7448 22.7699 32.5678 23.6591 32.5676 24.5571C32.5674 25.4552 32.7442 26.3444 33.0877 27.1742C33.4312 28.0039 33.9348 28.7579 34.5697 29.393C35.8519 30.6757 37.5912 31.3965 39.4049 31.3968C41.2185 31.3971 42.958 30.6769 44.2407 29.3947C45.5234 28.1125 46.2442 26.3732 46.2445 24.5595C46.2449 22.7459 45.5247 21.0063 44.2425 19.7236Z" fill="currentColor"/>
</svg>
