<svg width="68" height="64" viewBox="0 0 68 64" fill="none" xmlns="http://www.w3.org/2000/svg">
<path d="M65.8022 22.5362L45.4171 19.6163L36.3044 1.40854C36.0555 0.910023 35.6461 0.506461 35.1402 0.261158C33.8717 -0.356055 32.3302 0.158289 31.6959 1.40854L22.5832 19.6163L2.19816 22.5362C1.63614 22.6154 1.1223 22.8765 0.728888 23.2721C0.253277 23.7539 -0.00880684 24.4021 0.000225977 25.0742C0.00925879 25.7464 0.288669 26.3875 0.77706 26.8567L15.5259 41.0289L12.0414 61.0408C11.9597 61.5063 12.012 61.9851 12.1923 62.4229C12.3726 62.8606 12.6738 63.2398 13.0616 63.5174C13.4495 63.795 13.9085 63.96 14.3866 63.9936C14.8648 64.0272 15.3429 63.9281 15.7668 63.7075L34.0002 54.2594L52.2335 63.7075C52.7313 63.9686 53.3094 64.0557 53.8634 63.9607C55.2604 63.7233 56.1997 62.4177 55.9589 61.0408L52.4744 41.0289L67.2233 26.8567C67.6247 26.469 67.8897 25.9625 67.9699 25.4086C68.1867 24.0239 67.2072 22.742 65.8022 22.5362Z" fill="currentColor"/>
</svg>
