<svg width="64" height="76" viewBox="0 0 64 76" fill="none" xmlns="http://www.w3.org/2000/svg">
<path d="M32 0.5C16 0.5 0 2.47368 0 16.2895V53.7895C0 61.4079 6.28 67.6053 14 67.6053L8 73.5263V75.5H16.92L24.92 67.6053H40L48 75.5H56V73.5263L50 67.6053C57.72 67.6053 64 61.4079 64 53.7895V16.2895C64 2.47368 49.68 0.5 32 0.5ZM14 59.7105C10.68 59.7105 8 57.0658 8 53.7895C8 50.5132 10.68 47.8684 14 47.8684C17.32 47.8684 20 50.5132 20 53.7895C20 57.0658 17.32 59.7105 14 59.7105ZM28 28.3289C28 30.4 26.3145 32.0789 24.2353 32.0789H11.7647C9.68552 32.0789 8 30.4 8 28.3289V20.0395C8 17.9684 9.68552 16.2895 11.7647 16.2895H24.2353C26.3145 16.2895 28 17.9684 28 20.0395V28.3289ZM39.7647 32.0789C37.6855 32.0789 36 30.4 36 28.3289V20.0395C36 17.9684 37.6855 16.2895 39.7647 16.2895H52.2353C54.3145 16.2895 56 17.9684 56 20.0395V28.3289C56 30.4 54.3145 32.0789 52.2353 32.0789H39.7647ZM50 59.7105C46.68 59.7105 44 57.0658 44 53.7895C44 50.5132 46.68 47.8684 50 47.8684C53.32 47.8684 56 50.5132 56 53.7895C56 57.0658 53.32 59.7105 50 59.7105Z" fill="currentColor"/>
</svg>
