<svg width="72" height="64" viewBox="0 0 72 64" xmlns="http://www.w3.org/2000/svg">
<path d="M46.0844 5.73465L70.2083 45.4185C73.6752 51.1181 71.9723 58.6168 66.4031 62.1653C64.535 63.3631 62.3554 64.0004 60.1282 64H11.8768C5.32117 64 0.00390625 58.56 0.00390625 51.8435C0.00390625 49.5714 0.626714 47.3492 1.79673 45.4185L25.9242 5.73465C29.3874 0.0350523 36.7099 -1.71074 42.2792 1.83773C43.82 2.81907 45.1232 4.15242 46.0844 5.73465ZM36.0043 49.7777C36.9591 49.7777 37.8748 49.4031 38.5499 48.7363C39.2251 48.0695 39.6044 47.1651 39.6044 46.2221C39.6044 45.2791 39.2251 44.3747 38.5499 43.7079C37.8748 43.0411 36.9591 42.6665 36.0043 42.6665C35.0495 42.6665 34.1339 43.0411 33.4587 43.7079C32.7836 44.3747 32.4043 45.2791 32.4043 46.2221C32.4043 47.1651 32.7836 48.0695 33.4587 48.7363C34.1339 49.4031 35.0495 49.7777 36.0043 49.7777ZM36.0043 17.7774C35.0495 17.7774 34.1339 18.152 33.4587 18.8188C32.7836 19.4856 32.4043 20.39 32.4043 21.333V35.5553C32.4043 36.4983 32.7836 37.4027 33.4587 38.0695C34.1339 38.7363 35.0495 39.1109 36.0043 39.1109C36.9591 39.1109 37.8748 38.7363 38.5499 38.0695C39.2251 37.4027 39.6044 36.4983 39.6044 35.5553V21.333C39.6044 20.39 39.2251 19.4856 38.5499 18.8188C37.8748 18.152 36.9591 17.7774 36.0043 17.7774Z" fill="currentColor"/>
</svg>
