<svg width="106" height="171" viewBox="0 0 106 171" fill="none" xmlns="http://www.w3.org/2000/svg">
<path d="M70.9884 6.02355C62.1942 3.25561 57.2905 7.54898 52.9042 10.9863L53.498 13.1934L56.1837 10.9861C56.5144 11.3733 56.8824 11.7359 57.1942 11.9159C66.7205 17.4159 77.8186 4.19343 77.8186 4.19343C75.9525 5.42548 69.7654 2.14198 64.9352 0.50801C60.1051 -1.12596 56.248 1.55464 55.248 3.28669C54.248 5.01875 54.8886 7.40929 54.8886 7.40929C62.3282 1.02355 70.9884 6.02355 70.9884 6.02355Z" fill="#E6E6E6"/>
<path d="M70.9884 6.02355C62.1942 3.25561 57.2905 7.54898 52.9042 10.9863L53.498 13.1934L56.1837 10.9861C56.5144 11.3733 56.8824 11.7359 57.1942 11.9159C66.7205 17.4159 77.8186 4.19343 77.8186 4.19343C75.9525 5.42548 69.7654 2.14198 64.9352 0.50801C60.1051 -1.12596 56.248 1.55464 55.248 3.28669C54.248 5.01875 54.8886 7.40929 54.8886 7.40929C62.3282 1.02355 70.9884 6.02355 70.9884 6.02355Z" fill="url(#paint0_linear_702_54)"/>
<path d="M39 54.1933C39 55.2979 38.1046 56.1933 37 56.1933C35.8954 56.1933 35 55.2979 35 54.1933C35 53.0887 35.8954 52.1933 37 52.1933C38.1046 52.1933 39 53.0887 39 54.1933Z" fill="#E6E6E6"/>
<path d="M73 56.1933C74.1046 56.1933 75 55.2979 75 54.1933C75 53.0887 74.1046 52.1933 73 52.1933C71.8954 52.1933 71 53.0887 71 54.1933C71 55.2979 71.8954 56.1933 73 56.1933Z" fill="#E6E6E6"/>
<path fill-rule="evenodd" clip-rule="evenodd" d="M51.498 2.19343H45.998L50.498 11.1934V17.969C42.3589 18.7038 34.5006 23.0328 29.6694 30.956C28.5603 32.775 27.6677 34.7174 27.0098 36.7437L2.5107 102.961C0.847253 108.084 0 113.437 0 118.824V120.194C0 147.808 25.3858 170.194 53 170.194C80.6142 170.194 106 147.808 106 120.194V118.824C106 113.437 105.153 108.084 103.489 102.961L78.9902 36.7437C78.3323 34.7174 77.4397 32.775 76.3306 30.956C71.3991 22.8683 63.3134 18.5255 54.9946 17.9278L51.498 2.19343ZM35 65.1937C39.4183 65.1937 43 61.6119 43 57.1937C43 52.7754 39.4183 49.1937 35 49.1937C30.5817 49.1937 27 52.7754 27 57.1937C27 61.6119 30.5817 65.1937 35 65.1937ZM79 57.1937C79 61.6119 75.4183 65.1937 71 65.1937C66.5817 65.1937 63 61.6119 63 57.1937C63 52.7754 66.5817 49.1937 71 49.1937C75.4183 49.1937 79 52.7754 79 57.1937ZM52.998 78.1937C58.5209 78.1937 62.998 73.7165 62.998 68.1937H42.998C42.998 73.7165 47.4752 78.1937 52.998 78.1937Z" fill="#E6E6E6"/>
<path d="M29 120.193C29 106.939 39.7452 96.1934 53 96.1934C66.2548 96.1934 77 106.939 77 120.193C77 133.448 66.2548 144.193 53 144.193C39.7452 144.193 29 133.448 29 120.193Z" fill="url(#paint1_linear_702_54)"/>
<defs>
<linearGradient id="paint0_linear_702_54" x1="13.25" y1="138.082" x2="119.005" y2="71.2751" gradientUnits="userSpaceOnUse">
<stop stop-color="#F13FD8"/>
<stop offset="1" stop-color="#9D6BF2"/>
</linearGradient>
<linearGradient id="paint1_linear_702_54" x1="35" y1="135.693" x2="68.5" y2="102.193" gradientUnits="userSpaceOnUse">
<stop stop-color="#F13FD8"/>
<stop offset="1" stop-color="#9D6BF2"/>
</linearGradient>
</defs>
</svg>
