<svg width="361" height="171" viewBox="0 0 361 171" fill="none" xmlns="http://www.w3.org/2000/svg">
<path fill-rule="evenodd" clip-rule="evenodd" d="M242.315 136.616C242.891 136.989 243.547 137.176 244.283 137.176C244.677 137.176 245.051 137.117 245.403 137C245.765 136.893 246.085 136.749 246.363 136.568C246.58 136.417 246.765 136.25 246.917 136.067L246.987 137H249.371V125.16H246.795V129.336C246.671 129.21 246.533 129.092 246.379 128.984C246.091 128.781 245.771 128.621 245.419 128.504C245.067 128.387 244.699 128.328 244.315 128.328C243.568 128.328 242.907 128.52 242.331 128.904C241.755 129.288 241.301 129.816 240.971 130.488C240.64 131.149 240.475 131.907 240.475 132.76C240.475 133.613 240.64 134.376 240.971 135.048C241.301 135.709 241.749 136.232 242.315 136.616ZM245.963 134.76C245.675 134.952 245.333 135.048 244.939 135.048C244.544 135.048 244.203 134.952 243.915 134.76C243.637 134.568 243.419 134.301 243.259 133.96C243.099 133.619 243.019 133.219 243.019 132.76C243.019 132.291 243.099 131.885 243.259 131.544C243.419 131.203 243.637 130.936 243.915 130.744C244.203 130.552 244.544 130.456 244.939 130.456C245.333 130.456 245.675 130.552 245.963 130.744C246.251 130.936 246.469 131.203 246.619 131.544C246.779 131.885 246.859 132.291 246.859 132.76C246.859 133.219 246.779 133.619 246.619 133.96C246.469 134.301 246.251 134.568 245.963 134.76Z" fill="url(#paint0_linear_702_53)"/>
<path d="M230.91 137V128.504H233.342L233.39 129.544C233.436 129.49 233.484 129.436 233.534 129.384C233.843 129.064 234.211 128.808 234.638 128.616C235.065 128.424 235.513 128.328 235.982 128.328C236.622 128.328 237.161 128.461 237.598 128.728C238.035 128.984 238.366 129.373 238.59 129.896C238.814 130.408 238.926 131.037 238.926 131.784V137H236.35V131.992C236.35 131.651 236.302 131.368 236.206 131.144C236.11 130.92 235.961 130.755 235.758 130.648C235.566 130.531 235.326 130.477 235.038 130.488C234.814 130.488 234.606 130.525 234.414 130.6C234.222 130.664 234.057 130.765 233.918 130.904C233.779 131.032 233.667 131.181 233.582 131.352C233.507 131.523 233.47 131.709 233.47 131.912V137H230.91Z" fill="url(#paint1_linear_702_53)"/>
<path d="M220.869 125.8V137H228.837V134.68H223.509V132.408H227.957V130.2H223.509V128.12H228.677V125.8H220.869Z" fill="url(#paint2_linear_702_53)"/>
<path d="M213.105 133.577V131.225H218.641V133.577H213.105Z" fill="url(#paint3_linear_702_53)"/>
<path d="M207.754 130.744V137H210.314V130.744H211.962V128.504H210.314V126.36H207.754V128.504H206.25V130.744H207.754Z" fill="url(#paint4_linear_702_53)"/>
<path d="M196.895 137V128.504H199.327L199.375 129.544C199.42 129.49 199.468 129.436 199.519 129.384C199.828 129.064 200.196 128.808 200.623 128.616C201.049 128.424 201.497 128.328 201.967 128.328C202.607 128.328 203.145 128.461 203.583 128.728C204.02 128.984 204.351 129.373 204.575 129.896C204.799 130.408 204.911 131.037 204.911 131.784V137H202.335V131.992C202.335 131.651 202.287 131.368 202.191 131.144C202.095 130.92 201.945 130.755 201.743 130.648C201.551 130.531 201.311 130.477 201.023 130.488C200.799 130.488 200.591 130.525 200.399 130.6C200.207 130.664 200.041 130.765 199.903 130.904C199.764 131.032 199.652 131.181 199.567 131.352C199.492 131.523 199.455 131.709 199.455 131.912V137H196.895Z" fill="url(#paint5_linear_702_53)"/>
<path fill-rule="evenodd" clip-rule="evenodd" d="M188.277 136.584C188.97 136.968 189.759 137.16 190.645 137.16C191.53 137.16 192.314 136.968 192.997 136.584C193.69 136.2 194.234 135.677 194.629 135.016C195.023 134.355 195.221 133.597 195.221 132.744C195.221 131.891 195.023 131.133 194.629 130.472C194.234 129.811 193.69 129.288 192.997 128.904C192.314 128.52 191.53 128.328 190.645 128.328C189.759 128.328 188.97 128.52 188.277 128.904C187.594 129.288 187.05 129.811 186.645 130.472C186.25 131.133 186.053 131.891 186.053 132.744C186.053 133.597 186.25 134.355 186.645 135.016C187.05 135.677 187.594 136.2 188.277 136.584ZM191.669 134.664C191.37 134.856 191.029 134.952 190.645 134.952C190.261 134.952 189.914 134.856 189.605 134.664C189.306 134.472 189.071 134.211 188.901 133.88C188.73 133.549 188.65 133.171 188.661 132.744C188.65 132.317 188.73 131.939 188.901 131.608C189.071 131.267 189.306 131 189.605 130.808C189.914 130.616 190.261 130.52 190.645 130.52C191.029 130.52 191.37 130.616 191.669 130.808C191.967 131 192.202 131.267 192.373 131.608C192.543 131.939 192.623 132.317 192.613 132.744C192.623 133.171 192.543 133.549 192.373 133.88C192.202 134.211 191.967 134.472 191.669 134.664Z" fill="url(#paint6_linear_702_53)"/>
<path d="M179.723 137V128.504H182.155L182.207 129.797C182.27 129.699 182.338 129.604 182.411 129.512C182.709 129.149 183.056 128.861 183.451 128.648C183.845 128.435 184.267 128.328 184.715 128.328C184.907 128.328 185.083 128.344 185.243 128.376C185.413 128.408 185.568 128.445 185.707 128.488L185.003 131.32C184.885 131.245 184.725 131.187 184.523 131.144C184.331 131.091 184.128 131.064 183.915 131.064C183.68 131.064 183.461 131.107 183.259 131.192C183.056 131.267 182.885 131.379 182.747 131.528C182.608 131.677 182.496 131.853 182.411 132.056C182.336 132.259 182.299 132.488 182.299 132.744V137H179.723Z" fill="url(#paint7_linear_702_53)"/>
<path d="M170.244 125.8V137H172.964V132.712H177.3V130.44H172.964V128.2H177.956V125.8H170.244Z" fill="url(#paint8_linear_702_53)"/>
<path d="M290.313 134.19V137H289.113V125.16H290.313V132.748L294.505 128.648H296.121L292.326 132.27L296.409 137H294.841L291.467 133.089L290.313 134.19Z" fill="white"/>
<path fill-rule="evenodd" clip-rule="evenodd" d="M321.028 137.16C320.196 137.16 319.455 136.979 318.804 136.616C318.164 136.253 317.663 135.747 317.3 135.096C316.937 134.445 316.756 133.699 316.756 132.856C316.756 132.205 316.857 131.619 317.06 131.096C317.263 130.563 317.545 130.099 317.908 129.704C318.281 129.309 318.724 129.005 319.236 128.792C319.748 128.568 320.303 128.456 320.9 128.456C321.465 128.456 321.977 128.557 322.436 128.76C322.905 128.963 323.305 129.245 323.636 129.608C323.977 129.96 324.233 130.381 324.404 130.872C324.575 131.363 324.649 131.901 324.628 132.488L324.612 133.048H317.995C318.026 133.597 318.152 134.082 318.372 134.504C318.628 134.984 318.991 135.357 319.46 135.624C319.94 135.891 320.516 136.024 321.188 136.024C321.583 136.024 321.972 135.96 322.356 135.832C322.751 135.693 323.183 135.427 323.652 135.032L324.276 135.896C324.031 136.141 323.737 136.36 323.396 136.552C323.055 136.733 322.681 136.883 322.276 137C321.871 137.107 321.455 137.16 321.028 137.16ZM318.34 131.032C318.194 131.325 318.093 131.661 318.038 132.04H323.412V131.928C323.391 131.544 323.279 131.176 323.076 130.824C322.873 130.461 322.585 130.168 322.212 129.944C321.849 129.72 321.412 129.608 320.9 129.608C320.303 129.608 319.785 129.731 319.348 129.976C318.911 130.211 318.575 130.563 318.34 131.032Z" fill="white"/>
<path d="M237.402 157V148.648H238.602V157H237.402Z" fill="white"/>
<path d="M237.994 146.84C237.695 146.84 237.466 146.765 237.306 146.616C237.157 146.456 237.082 146.242 237.082 145.976C237.082 145.709 237.162 145.496 237.322 145.336C237.482 145.176 237.706 145.096 237.994 145.096C238.282 145.096 238.506 145.176 238.666 145.336C238.826 145.485 238.906 145.698 238.906 145.976C238.906 146.232 238.826 146.44 238.666 146.6C238.506 146.76 238.282 146.84 237.994 146.84Z" fill="white"/>
<path d="M255.504 145.16V157H256.704V151.912C256.704 151.592 256.768 151.293 256.896 151.016C257.024 150.739 257.2 150.493 257.424 150.28C257.648 150.067 257.915 149.901 258.224 149.784C258.533 149.656 258.864 149.592 259.216 149.592C259.664 149.581 260.037 149.661 260.336 149.832C260.635 150.003 260.853 150.269 260.992 150.632C261.141 150.984 261.216 151.437 261.216 151.992V157H262.432V151.928C262.432 151.139 262.325 150.488 262.112 149.976C261.909 149.464 261.595 149.085 261.168 148.84C260.741 148.595 260.208 148.472 259.568 148.472C259.12 148.472 258.677 148.568 258.24 148.76C257.813 148.952 257.44 149.219 257.12 149.56C256.954 149.732 256.815 149.917 256.704 150.117V145.16H255.504Z" fill="white"/>
<path d="M280.02 145.16V157H281.22V151.912C281.22 151.592 281.284 151.293 281.412 151.016C281.54 150.739 281.716 150.493 281.94 150.28C282.164 150.067 282.43 149.901 282.74 149.784C283.049 149.656 283.38 149.592 283.732 149.592C284.18 149.581 284.553 149.661 284.852 149.832C285.15 150.003 285.369 150.269 285.508 150.632C285.657 150.984 285.732 151.437 285.732 151.992V157H286.948V151.928C286.948 151.139 286.841 150.488 286.628 149.976C286.425 149.464 286.11 149.085 285.684 148.84C285.257 148.595 284.724 148.472 284.084 148.472C283.636 148.472 283.193 148.568 282.756 148.76C282.329 148.952 281.956 149.219 281.636 149.56C281.47 149.732 281.331 149.917 281.22 150.117V145.16H280.02Z" fill="white"/>
<path d="M300.312 157V149.8H298.424V148.648H300.312V146.456H301.512V148.648H303.624V149.8H301.512V157H300.312Z" fill="white"/>
<path fill-rule="evenodd" clip-rule="evenodd" d="M292.503 157.16C291.778 157.16 291.122 156.973 290.535 156.6C289.948 156.216 289.484 155.698 289.143 155.048C288.802 154.386 288.631 153.64 288.631 152.808C288.631 151.965 288.807 151.218 289.159 150.568C289.511 149.917 289.98 149.405 290.567 149.032C291.164 148.658 291.831 148.472 292.567 148.472C293.004 148.472 293.41 148.536 293.783 148.664C294.156 148.792 294.487 148.973 294.775 149.208C295.074 149.432 295.319 149.698 295.511 150.008C295.524 150.027 295.537 150.047 295.55 150.067C295.564 150.088 295.577 150.11 295.59 150.131L295.623 148.648H296.823V157H295.607V155.504C295.572 155.56 295.535 155.616 295.495 155.672C295.282 155.96 295.02 156.216 294.711 156.44C294.412 156.664 294.071 156.84 293.687 156.968C293.314 157.096 292.919 157.16 292.503 157.16ZM292.775 156.008C293.33 156.008 293.826 155.874 294.263 155.608C294.7 155.33 295.042 154.952 295.287 154.472C295.543 153.981 295.671 153.426 295.671 152.808C295.671 152.189 295.543 151.64 295.287 151.16C295.042 150.68 294.7 150.301 294.263 150.024C293.826 149.746 293.33 149.608 292.775 149.608C292.21 149.608 291.708 149.746 291.271 150.024C290.844 150.301 290.503 150.68 290.247 151.16C290.002 151.64 289.879 152.189 289.879 152.808C289.879 153.416 290.002 153.965 290.247 154.456C290.492 154.936 290.834 155.314 291.271 155.592C291.708 155.869 292.21 156.008 292.775 156.008Z" fill="white"/>
<path d="M274.326 157.16C273.526 157.16 272.79 157.021 272.118 156.744C271.446 156.456 270.865 156.056 270.374 155.544C269.884 155.021 269.5 154.408 269.222 153.704C268.956 153 268.822 152.232 268.822 151.4C268.822 150.578 268.956 149.826 269.222 149.144C269.5 148.45 269.889 147.848 270.39 147.336C270.892 146.813 271.473 146.413 272.134 146.136C272.796 145.858 273.521 145.72 274.31 145.72C274.833 145.72 275.35 145.805 275.862 145.976C276.374 146.136 276.844 146.36 277.27 146.648C277.708 146.936 278.065 147.266 278.342 147.64L277.478 148.536C277.212 148.216 276.902 147.938 276.55 147.704C276.209 147.469 275.846 147.288 275.462 147.16C275.078 147.032 274.694 146.968 274.31 146.968C273.713 146.968 273.153 147.08 272.63 147.304C272.118 147.517 271.676 147.821 271.302 148.216C270.929 148.61 270.636 149.08 270.422 149.624C270.22 150.168 270.118 150.76 270.118 151.4C270.118 152.061 270.22 152.669 270.422 153.224C270.636 153.778 270.934 154.258 271.318 154.664C271.713 155.058 272.172 155.368 272.694 155.592C273.228 155.805 273.82 155.912 274.47 155.912C274.854 155.912 275.238 155.858 275.622 155.752C276.006 155.634 276.358 155.474 276.678 155.272C276.998 155.069 277.27 154.84 277.494 154.584L278.134 155.624C277.889 155.922 277.558 156.189 277.142 156.424C276.737 156.648 276.289 156.829 275.798 156.968C275.308 157.096 274.817 157.16 274.326 157.16Z" fill="white"/>
<path d="M250.602 157.16C249.813 157.16 249.109 156.973 248.49 156.6C247.872 156.216 247.381 155.698 247.018 155.048C246.666 154.386 246.49 153.64 246.49 152.808C246.49 151.976 246.666 151.234 247.018 150.584C247.381 149.922 247.872 149.405 248.49 149.032C249.109 148.658 249.818 148.472 250.618 148.472C251.333 148.472 251.984 148.616 252.57 148.904C253.157 149.181 253.626 149.57 253.978 150.072L253.274 150.936C253.072 150.669 252.826 150.434 252.538 150.232C252.261 150.029 251.957 149.874 251.626 149.768C251.306 149.65 250.986 149.592 250.666 149.592C250.101 149.592 249.594 149.736 249.146 150.024C248.698 150.301 248.341 150.68 248.074 151.16C247.818 151.64 247.69 152.189 247.69 152.808C247.69 153.426 247.818 153.981 248.074 154.472C248.341 154.952 248.698 155.33 249.146 155.608C249.594 155.885 250.096 156.024 250.65 156.024C250.97 156.024 251.285 155.976 251.594 155.88C251.904 155.773 252.197 155.624 252.474 155.432C252.752 155.24 253.008 155 253.242 154.712L253.946 155.576C253.584 156.056 253.098 156.44 252.49 156.728C251.882 157.016 251.253 157.16 250.602 157.16Z" fill="white"/>
<path d="M242.374 149.8V157H243.574V149.8H245.686V148.648H243.574V146.456H242.374V148.648H240.486V149.8H242.374Z" fill="white"/>
<path d="M223.811 148.648L226.707 157H227.443L229.725 151.622L232.067 157H232.771L235.667 148.648H234.403L232.311 154.806L230.115 149.928H229.395L227.17 154.9L225.091 148.632L223.811 148.648Z" fill="white"/>
<path d="M219.657 157V147.016H216.457V145.8H224.233V147.016H220.905V157H219.657Z" fill="white"/>
<path d="M206.691 148.648V157H207.907V152.264C207.907 151.922 207.961 151.602 208.067 151.304C208.174 151.005 208.329 150.744 208.531 150.52C208.734 150.285 208.979 150.104 209.267 149.976C209.555 149.848 209.881 149.784 210.243 149.784C210.371 149.784 210.505 149.8 210.643 149.832C210.793 149.853 210.937 149.896 211.075 149.96L211.411 148.616C211.305 148.573 211.171 148.541 211.011 148.52C210.851 148.488 210.681 148.472 210.499 148.472C210.062 148.472 209.662 148.568 209.299 148.76C208.937 148.952 208.622 149.208 208.355 149.528C208.173 149.755 208.026 149.996 207.914 150.251L207.891 148.648H206.691Z" fill="white"/>
<path fill-rule="evenodd" clip-rule="evenodd" d="M200.669 157.16C199.837 157.16 199.096 156.973 198.445 156.6C197.805 156.226 197.298 155.709 196.925 155.048C196.562 154.386 196.381 153.634 196.381 152.792C196.381 151.96 196.562 151.218 196.925 150.568C197.298 149.917 197.805 149.405 198.445 149.032C199.096 148.658 199.837 148.472 200.669 148.472C201.49 148.472 202.221 148.658 202.861 149.032C203.512 149.405 204.018 149.917 204.381 150.568C204.754 151.218 204.941 151.96 204.941 152.792C204.941 153.634 204.754 154.386 204.381 155.048C204.018 155.709 203.512 156.226 202.861 156.6C202.221 156.973 201.49 157.16 200.669 157.16ZM200.669 156.024C201.256 156.024 201.778 155.885 202.237 155.608C202.696 155.32 203.053 154.936 203.309 154.456C203.565 153.965 203.693 153.41 203.693 152.792C203.693 152.173 203.565 151.624 203.309 151.144C203.053 150.664 202.696 150.29 202.237 150.024C201.778 149.746 201.256 149.608 200.669 149.608C200.082 149.608 199.554 149.746 199.085 150.024C198.626 150.29 198.264 150.669 197.997 151.16C197.741 151.64 197.618 152.184 197.629 152.792C197.618 153.41 197.741 153.965 197.997 154.456C198.264 154.936 198.626 155.32 199.085 155.608C199.554 155.885 200.082 156.024 200.669 156.024Z" fill="white"/>
<path d="M192.199 149.832V157H193.415V149.832H195.543V148.712H193.415V147.352C193.415 147.139 193.452 146.957 193.527 146.808C193.612 146.648 193.735 146.531 193.895 146.456C194.055 146.371 194.252 146.328 194.487 146.328C194.668 146.328 194.855 146.371 195.047 146.456C195.25 146.531 195.436 146.659 195.607 146.84L196.023 145.896C195.842 145.683 195.612 145.517 195.335 145.4C195.068 145.272 194.764 145.208 194.423 145.208C193.975 145.208 193.58 145.304 193.239 145.496C192.908 145.677 192.652 145.928 192.471 146.248C192.29 146.568 192.199 146.936 192.199 147.352V148.712H190.711V149.832H192.199Z" fill="white"/>
<path fill-rule="evenodd" clip-rule="evenodd" d="M309.125 140.392C309.68 140.584 310.267 140.68 310.885 140.68C311.504 140.68 312.064 140.584 312.565 140.392C313.077 140.21 313.515 139.938 313.877 139.576C314.251 139.224 314.533 138.786 314.725 138.264C314.917 137.752 315.013 137.16 315.013 136.488V128.648H313.813L313.78 130.07C313.642 129.847 313.466 129.639 313.253 129.448C313.04 129.256 312.8 129.085 312.533 128.936C312.277 128.786 311.995 128.674 311.685 128.6C311.376 128.514 311.056 128.472 310.725 128.472C309.968 128.472 309.285 128.658 308.677 129.032C308.069 129.405 307.584 129.922 307.221 130.584C306.869 131.234 306.693 131.981 306.693 132.824C306.693 133.656 306.869 134.402 307.221 135.064C307.573 135.714 308.053 136.226 308.661 136.6C309.28 136.973 309.979 137.16 310.757 137.16C311.269 137.16 311.755 137.058 312.213 136.856C312.672 136.642 313.061 136.365 313.381 136.024C313.56 135.827 313.704 135.621 313.813 135.408V136.536C313.813 137.197 313.696 137.752 313.461 138.2C313.237 138.648 312.907 138.984 312.469 139.208C312.043 139.442 311.52 139.56 310.901 139.56C310.56 139.56 310.224 139.517 309.893 139.432C309.563 139.357 309.253 139.25 308.965 139.112C308.688 138.984 308.443 138.834 308.229 138.664L307.749 139.672C308.112 139.96 308.571 140.2 309.125 140.392ZM312.405 135.608C311.968 135.874 311.467 136.008 310.901 136.008C310.315 136.008 309.797 135.869 309.349 135.592C308.912 135.314 308.565 134.936 308.309 134.456C308.064 133.965 307.941 133.416 307.941 132.808C307.941 132.189 308.069 131.64 308.325 131.16C308.581 130.68 308.928 130.301 309.365 130.024C309.813 129.746 310.325 129.608 310.901 129.608C311.467 129.608 311.973 129.746 312.421 130.024C312.869 130.301 313.216 130.68 313.461 131.16C313.717 131.64 313.845 132.189 313.845 132.808C313.845 133.437 313.717 133.992 313.461 134.472C313.205 134.952 312.853 135.33 312.405 135.608Z" fill="white"/>
<path fill-rule="evenodd" clip-rule="evenodd" d="M300.628 137.16C299.903 137.16 299.247 136.973 298.66 136.6C298.073 136.216 297.609 135.698 297.268 135.048C296.927 134.386 296.756 133.64 296.756 132.808C296.756 131.965 296.932 131.218 297.284 130.568C297.636 129.917 298.105 129.405 298.692 129.032C299.289 128.658 299.956 128.472 300.692 128.472C301.129 128.472 301.535 128.536 301.908 128.664C302.281 128.792 302.612 128.973 302.9 129.208C303.199 129.432 303.444 129.698 303.636 130.008C303.663 130.048 303.69 130.089 303.715 130.131L303.748 128.648H304.948V137H303.732V135.504C303.697 135.56 303.66 135.616 303.62 135.672C303.407 135.96 303.145 136.216 302.836 136.44C302.537 136.664 302.196 136.84 301.812 136.968C301.439 137.096 301.044 137.16 300.628 137.16ZM300.9 136.008C301.455 136.008 301.951 135.874 302.388 135.608C302.825 135.33 303.167 134.952 303.412 134.472C303.668 133.981 303.796 133.426 303.796 132.808C303.796 132.189 303.668 131.64 303.412 131.16C303.167 130.68 302.825 130.301 302.388 130.024C301.951 129.746 301.455 129.608 300.9 129.608C300.335 129.608 299.833 129.746 299.396 130.024C298.969 130.301 298.628 130.68 298.372 131.16C298.127 131.64 298.004 132.189 298.004 132.808C298.004 133.416 298.127 133.965 298.372 134.456C298.617 134.936 298.959 135.314 299.396 135.592C299.833 135.869 300.335 136.008 300.9 136.008Z" fill="white"/>
<path d="M284.212 137.16C283.422 137.16 282.718 136.973 282.1 136.6C281.481 136.216 280.99 135.698 280.628 135.048C280.276 134.386 280.1 133.64 280.1 132.808C280.1 131.976 280.276 131.234 280.628 130.584C280.99 129.922 281.481 129.405 282.1 129.032C282.718 128.658 283.428 128.472 284.228 128.472C284.942 128.472 285.593 128.616 286.18 128.904C286.766 129.181 287.236 129.57 287.588 130.072L286.884 130.936C286.681 130.669 286.436 130.434 286.148 130.232C285.87 130.029 285.566 129.874 285.236 129.768C284.916 129.65 284.596 129.592 284.276 129.592C283.71 129.592 283.204 129.736 282.756 130.024C282.308 130.301 281.95 130.68 281.684 131.16C281.428 131.64 281.3 132.189 281.3 132.808C281.3 133.426 281.428 133.981 281.684 134.472C281.95 134.952 282.308 135.33 282.756 135.608C283.204 135.885 283.705 136.024 284.26 136.024C284.58 136.024 284.894 135.976 285.204 135.88C285.513 135.773 285.806 135.624 286.084 135.432C286.361 135.24 286.617 135 286.852 134.712L287.556 135.576C287.193 136.056 286.708 136.44 286.1 136.728C285.492 137.016 284.862 137.16 284.212 137.16Z" fill="white"/>
<path fill-rule="evenodd" clip-rule="evenodd" d="M272.066 136.6C272.653 136.973 273.309 137.16 274.034 137.16C274.45 137.16 274.845 137.096 275.218 136.968C275.602 136.84 275.943 136.664 276.242 136.44C276.551 136.216 276.813 135.96 277.026 135.672C277.066 135.616 277.103 135.56 277.138 135.504V137H278.354V128.648H277.154L277.121 130.131C277.096 130.089 277.07 130.048 277.042 130.008C276.85 129.698 276.605 129.432 276.306 129.208C276.018 128.973 275.687 128.792 275.314 128.664C274.941 128.536 274.535 128.472 274.098 128.472C273.362 128.472 272.695 128.658 272.098 129.032C271.511 129.405 271.042 129.917 270.69 130.568C270.338 131.218 270.162 131.965 270.162 132.808C270.162 133.64 270.333 134.386 270.674 135.048C271.015 135.698 271.479 136.216 272.066 136.6ZM275.794 135.608C275.357 135.874 274.861 136.008 274.306 136.008C273.741 136.008 273.239 135.869 272.802 135.592C272.365 135.314 272.023 134.936 271.778 134.456C271.533 133.965 271.41 133.416 271.41 132.808C271.41 132.189 271.533 131.64 271.778 131.16C272.034 130.68 272.375 130.301 272.802 130.024C273.239 129.746 273.741 129.608 274.306 129.608C274.861 129.608 275.357 129.746 275.794 130.024C276.231 130.301 276.573 130.68 276.818 131.16C277.074 131.64 277.202 132.189 277.202 132.808C277.202 133.426 277.074 133.981 276.818 134.472C276.573 134.952 276.231 135.33 275.794 135.608Z" fill="white"/>
<path fill-rule="evenodd" clip-rule="evenodd" d="M261.453 125.8V137H262.701V132.584H265.885C266.472 132.584 267 132.434 267.469 132.136C267.938 131.826 268.312 131.416 268.589 130.904C268.866 130.381 269.005 129.789 269.005 129.128C269.005 128.498 268.866 127.933 268.589 127.432C268.312 126.92 267.938 126.52 267.469 126.232C267 125.944 266.472 125.8 265.885 125.8H261.453ZM262.701 131.368H265.949C266.28 131.368 266.573 131.272 266.829 131.08C267.096 130.877 267.309 130.61 267.469 130.28C267.629 129.938 267.709 129.549 267.709 129.112C267.709 128.717 267.629 128.365 267.469 128.056C267.309 127.736 267.096 127.485 266.829 127.304C266.573 127.112 266.28 127.016 265.949 127.016H262.701V131.368Z" fill="white"/>
<path d="M135.633 60.2002V105H146.193V91.0482C146.193 86.9095 146.086 83.3469 145.873 80.3602C145.831 79.6257 145.781 78.8962 145.722 78.1717L155.857 94.1202H160.081L170.477 77.9903C170.393 78.8851 170.319 79.7817 170.257 80.6802C170.086 83.7522 170.001 87.2082 170.001 91.0482V105H180.561V60.2002H171.217L158.198 81.0915L145.361 60.2002H135.633Z" fill="url(#paint9_linear_702_53)"/>
<path d="M278.372 105V71.0163H288.612V105H278.372Z" fill="white"/>
<path d="M283.492 64.2963C281.572 64.2963 280.057 63.8483 278.948 62.9523C277.881 62.0137 277.348 60.691 277.348 58.9843C277.348 57.4483 277.902 56.1897 279.012 55.2083C280.121 54.227 281.614 53.7363 283.492 53.7363C285.412 53.7363 286.905 54.2057 287.972 55.1443C289.038 56.0403 289.572 57.3203 289.572 58.9843C289.572 60.563 289.017 61.843 287.908 62.8243C286.841 63.8057 285.369 64.2963 283.492 64.2963Z" fill="white"/>
<path d="M311.597 118.44L307.693 110.504C309.656 110.504 311.192 110.248 312.301 109.736C313.411 109.224 314.2 108.371 314.669 107.176C315.139 106.024 315.373 104.424 315.373 102.376V71.0163H325.613V104.808C325.613 107.923 325.08 110.483 324.013 112.488C322.947 114.494 321.368 115.987 319.277 116.968C317.187 117.95 314.627 118.44 311.597 118.44Z" fill="white"/>
<path d="M320.685 64.2963C318.765 64.2963 317.251 63.8483 316.141 62.9523C315.075 62.0137 314.541 60.691 314.541 58.9843C314.541 57.4483 315.096 56.1897 316.205 55.2083C317.315 54.227 318.808 53.7363 320.685 53.7363C322.605 53.7363 324.099 54.2057 325.165 55.1443C326.232 56.0403 326.765 57.3203 326.765 58.9843C326.765 60.563 326.211 61.843 325.101 62.8243C324.035 63.8057 322.563 64.2963 320.685 64.2963Z" fill="white"/>
<path d="M346.375 105.641C343.047 105.641 340.103 105.107 337.543 104.041C335.026 102.974 333.021 101.545 331.527 99.7525L337.735 94.3765C339.058 95.6992 340.551 96.6805 342.215 97.3205C343.879 97.9178 345.458 98.2165 346.951 98.2165C347.549 98.2165 348.082 98.1525 348.551 98.0245C349.021 97.8965 349.405 97.7258 349.703 97.5125C350.045 97.2565 350.301 96.9792 350.471 96.6805C350.642 96.3392 350.727 95.9552 350.727 95.5285C350.727 94.6752 350.343 94.0138 349.575 93.5445C349.191 93.3312 348.551 93.0752 347.655 92.7765C346.759 92.4778 345.607 92.1365 344.199 91.7525C342.194 91.2405 340.445 90.6432 338.951 89.9605C337.501 89.2352 336.306 88.4032 335.367 87.4645C334.514 86.5685 333.853 85.5872 333.383 84.5205C332.914 83.4112 332.679 82.1738 332.679 80.8085C332.679 79.2298 333.042 77.8005 333.767 76.5205C334.535 75.2405 335.538 74.1312 336.775 73.1925C338.055 72.2538 339.506 71.5498 341.127 71.0805C342.791 70.5685 344.498 70.3125 346.247 70.3125C348.125 70.3125 349.917 70.5258 351.623 70.9525C353.33 71.3792 354.909 71.9765 356.359 72.7445C357.853 73.5125 359.175 74.4298 360.327 75.4965L354.951 81.5125C354.183 80.7872 353.309 80.1472 352.327 79.5925C351.389 78.9952 350.407 78.5258 349.383 78.1845C348.359 77.8432 347.421 77.6725 346.567 77.6725C345.927 77.6725 345.351 77.7365 344.839 77.8645C344.37 77.9498 343.965 78.1205 343.623 78.3765C343.282 78.5898 343.026 78.8672 342.855 79.2085C342.685 79.5072 342.599 79.8698 342.599 80.2965C342.599 80.7232 342.706 81.1285 342.919 81.5125C343.175 81.8965 343.517 82.2165 343.943 82.4725C344.37 82.7285 345.053 83.0272 345.991 83.3685C346.93 83.6672 348.21 84.0512 349.831 84.5205C351.837 85.0752 353.565 85.6938 355.015 86.3765C356.466 87.0592 357.618 87.8698 358.471 88.8085C359.154 89.5338 359.666 90.3872 360.007 91.3685C360.349 92.3072 360.519 93.3312 360.519 94.4405C360.519 96.6165 359.901 98.5578 358.663 100.265C357.469 101.929 355.805 103.251 353.671 104.233C351.538 105.171 349.106 105.641 346.375 105.641Z" fill="white"/>
<path d="M297.785 104.232C298.766 105.213 300.132 105.704 301.881 105.704C303.545 105.704 304.889 105.171 305.913 104.104C306.937 103.037 307.449 101.672 307.449 100.008C307.449 98.1734 306.958 96.7654 305.977 95.784C304.996 94.76 303.63 94.248 301.881 94.248C300.26 94.248 298.937 94.7814 297.913 95.848C296.889 96.9147 296.377 98.3014 296.377 100.008C296.377 101.843 296.846 103.251 297.785 104.232Z" fill="white"/>
<path d="M216.168 71.016V105H226.472V84.712C226.472 83.9013 226.621 83.1546 226.92 82.472C227.219 81.7893 227.624 81.192 228.136 80.68C228.691 80.168 229.331 79.7626 230.056 79.464C230.824 79.1653 231.656 79.016 232.552 79.016C233.576 79.016 234.472 79.2506 235.24 79.72C236.008 80.1893 236.584 80.872 236.968 81.768C237.352 82.664 237.544 83.752 237.544 85.032V105H247.848V84.776C247.848 83.9226 247.997 83.1546 248.296 82.472C248.595 81.7893 249 81.192 249.512 80.68C250.067 80.168 250.707 79.7626 251.432 79.464C252.2 79.1653 253.032 79.016 253.928 79.016C255.037 79.016 255.955 79.2506 256.68 79.72C257.448 80.1466 258.024 80.808 258.408 81.704C258.792 82.6 258.984 83.7306 258.984 85.096V105H269.288V84.264C269.288 81.2773 268.819 78.7386 267.88 76.648C266.984 74.5573 265.64 73 263.848 71.976C262.056 70.9093 259.816 70.376 257.128 70.376C256.061 70.376 254.952 70.5253 253.8 70.824C252.648 71.1226 251.539 71.5706 250.472 72.168C249.405 72.7226 248.424 73.4266 247.528 74.28C246.868 74.9074 246.297 75.5986 245.815 76.3538C245.326 75.2739 244.745 74.3693 244.072 73.64C243.048 72.488 241.853 71.656 240.488 71.144C239.123 70.632 237.608 70.376 235.944 70.376C234.835 70.376 233.725 70.5253 232.616 70.824C231.549 71.1226 230.504 71.5706 229.48 72.168C228.499 72.7226 227.603 73.4266 226.792 74.28C226.552 74.5466 226.325 74.8257 226.11 75.1173L225.896 71.016H216.168Z" fill="white"/>
<path d="M193.549 105V79.9764H187.533V71.0164H193.549V62.4404H203.789V71.0164H210.381V79.9764H203.789V105H193.549Z" fill="white"/>
<path d="M70.9884 6.02355C62.1942 3.25561 57.2905 7.54898 52.9042 10.9863L53.498 13.1934L56.1837 10.9861C56.5144 11.3733 56.8824 11.7359 57.1942 11.9159C66.7205 17.4159 77.8186 4.19343 77.8186 4.19343C75.9525 5.42548 69.7654 2.14198 64.9352 0.50801C60.1051 -1.12596 56.248 1.55464 55.248 3.28669C54.248 5.01875 54.8886 7.40929 54.8886 7.40929C62.3282 1.02355 70.9884 6.02355 70.9884 6.02355Z" fill="#E6E6E6"/>
<path d="M70.9884 6.02355C62.1942 3.25561 57.2905 7.54898 52.9042 10.9863L53.498 13.1934L56.1837 10.9861C56.5144 11.3733 56.8824 11.7359 57.1942 11.9159C66.7205 17.4159 77.8186 4.19343 77.8186 4.19343C75.9525 5.42548 69.7654 2.14198 64.9352 0.50801C60.1051 -1.12596 56.248 1.55464 55.248 3.28669C54.248 5.01875 54.8886 7.40929 54.8886 7.40929C62.3282 1.02355 70.9884 6.02355 70.9884 6.02355Z" fill="url(#paint10_linear_702_53)"/>
<path d="M39 54.1933C39 55.2979 38.1046 56.1933 37 56.1933C35.8954 56.1933 35 55.2979 35 54.1933C35 53.0887 35.8954 52.1933 37 52.1933C38.1046 52.1933 39 53.0887 39 54.1933Z" fill="#E6E6E6"/>
<path d="M73 56.1933C74.1046 56.1933 75 55.2979 75 54.1933C75 53.0887 74.1046 52.1933 73 52.1933C71.8954 52.1933 71 53.0887 71 54.1933C71 55.2979 71.8954 56.1933 73 56.1933Z" fill="#E6E6E6"/>
<path fill-rule="evenodd" clip-rule="evenodd" d="M51.498 2.19343H45.998L50.498 11.1934V17.969C42.3589 18.7038 34.5006 23.0328 29.6694 30.956C28.5603 32.775 27.6677 34.7174 27.0098 36.7437L2.5107 102.961C0.847253 108.084 0 113.437 0 118.824V120.194C0 147.808 25.3858 170.194 53 170.194C80.6142 170.194 106 147.808 106 120.194V118.824C106 113.437 105.153 108.084 103.489 102.961L78.9902 36.7437C78.3323 34.7174 77.4397 32.775 76.3306 30.956C71.3991 22.8683 63.3134 18.5255 54.9946 17.9278L51.498 2.19343ZM35 65.1937C39.4183 65.1937 43 61.6119 43 57.1937C43 52.7754 39.4183 49.1937 35 49.1937C30.5817 49.1937 27 52.7754 27 57.1937C27 61.6119 30.5817 65.1937 35 65.1937ZM79 57.1937C79 61.6119 75.4183 65.1937 71 65.1937C66.5817 65.1937 63 61.6119 63 57.1937C63 52.7754 66.5817 49.1937 71 49.1937C75.4183 49.1937 79 52.7754 79 57.1937ZM52.998 78.1937C58.5209 78.1937 62.998 73.7165 62.998 68.1937H42.998C42.998 73.7165 47.4752 78.1937 52.998 78.1937Z" fill="#E6E6E6"/>
<path d="M29 120.193C29 106.939 39.7452 96.1934 53 96.1934C66.2548 96.1934 77 106.939 77 120.193C77 133.448 66.2548 144.193 53 144.193C39.7452 144.193 29 133.448 29 120.193Z" fill="url(#paint11_linear_702_53)"/>
<defs>
<linearGradient id="paint0_linear_702_53" x1="171" y1="133.618" x2="249" y2="133.618" gradientUnits="userSpaceOnUse">
<stop stop-color="#F13FD8"/>
<stop offset="1" stop-color="#9D6BF2"/>
</linearGradient>
<linearGradient id="paint1_linear_702_53" x1="171" y1="133.618" x2="249" y2="133.618" gradientUnits="userSpaceOnUse">
<stop stop-color="#F13FD8"/>
<stop offset="1" stop-color="#9D6BF2"/>
</linearGradient>
<linearGradient id="paint2_linear_702_53" x1="171" y1="133.618" x2="249" y2="133.618" gradientUnits="userSpaceOnUse">
<stop stop-color="#F13FD8"/>
<stop offset="1" stop-color="#9D6BF2"/>
</linearGradient>
<linearGradient id="paint3_linear_702_53" x1="171" y1="133.618" x2="249" y2="133.618" gradientUnits="userSpaceOnUse">
<stop stop-color="#F13FD8"/>
<stop offset="1" stop-color="#9D6BF2"/>
</linearGradient>
<linearGradient id="paint4_linear_702_53" x1="171" y1="133.618" x2="249" y2="133.618" gradientUnits="userSpaceOnUse">
<stop stop-color="#F13FD8"/>
<stop offset="1" stop-color="#9D6BF2"/>
</linearGradient>
<linearGradient id="paint5_linear_702_53" x1="171" y1="133.618" x2="249" y2="133.618" gradientUnits="userSpaceOnUse">
<stop stop-color="#F13FD8"/>
<stop offset="1" stop-color="#9D6BF2"/>
</linearGradient>
<linearGradient id="paint6_linear_702_53" x1="171" y1="133.618" x2="249" y2="133.618" gradientUnits="userSpaceOnUse">
<stop stop-color="#F13FD8"/>
<stop offset="1" stop-color="#9D6BF2"/>
</linearGradient>
<linearGradient id="paint7_linear_702_53" x1="171" y1="133.618" x2="249" y2="133.618" gradientUnits="userSpaceOnUse">
<stop stop-color="#F13FD8"/>
<stop offset="1" stop-color="#9D6BF2"/>
</linearGradient>
<linearGradient id="paint8_linear_702_53" x1="171" y1="133.618" x2="249" y2="133.618" gradientUnits="userSpaceOnUse">
<stop stop-color="#F13FD8"/>
<stop offset="1" stop-color="#9D6BF2"/>
</linearGradient>
<linearGradient id="paint9_linear_702_53" x1="107.442" y1="118.44" x2="103.353" y2="82.5553" gradientUnits="userSpaceOnUse">
<stop stop-color="#F13FD8"/>
<stop offset="1" stop-color="#9D6BF2"/>
</linearGradient>
<linearGradient id="paint10_linear_702_53" x1="13.25" y1="138.082" x2="119.005" y2="71.2751" gradientUnits="userSpaceOnUse">
<stop stop-color="#F13FD8"/>
<stop offset="1" stop-color="#9D6BF2"/>
</linearGradient>
<linearGradient id="paint11_linear_702_53" x1="35" y1="135.693" x2="68.5" y2="102.193" gradientUnits="userSpaceOnUse">
<stop stop-color="#F13FD8"/>
<stop offset="1" stop-color="#9D6BF2"/>
</linearGradient>
</defs>
</svg>
