<svg width="226" height="66" viewBox="0 0 226 66" fill="none" xmlns="http://www.w3.org/2000/svg">
<path d="M0.632812 7.19971V51.9997H11.1928V38.0477C11.1928 33.909 11.0861 30.3464 10.8728 27.3597C10.8314 26.6252 10.7813 25.8957 10.7223 25.1712L20.8568 41.1197H25.0808L35.4768 24.9898C35.3926 25.8846 35.3192 26.7812 35.2568 27.6797C35.0861 30.7517 35.0008 34.2077 35.0008 38.0477V51.9997H45.5608V7.19971H36.2168L23.1976 28.091L10.3608 7.19971H0.632812Z" fill="url(#paint0_linear_702_69)"/>
<path d="M143.372 51.9998V18.0158H153.612V51.9998H143.372Z" fill="white"/>
<path d="M148.492 11.2958C146.572 11.2958 145.057 10.8478 143.948 9.95184C142.881 9.01318 142.348 7.69051 142.348 5.98384C142.348 4.44784 142.902 3.18917 144.012 2.20784C145.121 1.22651 146.614 0.73584 148.492 0.73584C150.412 0.73584 151.905 1.20517 152.972 2.14384C154.038 3.03984 154.572 4.31984 154.572 5.98384C154.572 7.56251 154.017 8.84251 152.908 9.82384C151.841 10.8052 150.369 11.2958 148.492 11.2958Z" fill="white"/>
<path d="M176.599 65.4398L172.695 57.5038C174.657 57.5038 176.193 57.2478 177.303 56.7358C178.412 56.2238 179.201 55.3705 179.671 54.1758C180.14 53.0238 180.375 51.4238 180.375 49.3758V18.0158H190.615V51.8078C190.615 54.9225 190.081 57.4825 189.015 59.4878C187.948 61.4932 186.369 62.9865 184.279 63.9678C182.188 64.9492 179.628 65.4398 176.599 65.4398Z" fill="white"/>
<path d="M185.687 11.2958C183.767 11.2958 182.252 10.8478 181.143 9.95184C180.076 9.01318 179.543 7.69051 179.543 5.98384C179.543 4.44784 180.097 3.18917 181.207 2.20784C182.316 1.22651 183.809 0.73584 185.687 0.73584C187.607 0.73584 189.1 1.20517 190.167 2.14384C191.233 3.03984 191.767 4.31984 191.767 5.98384C191.767 7.56251 191.212 8.84251 190.103 9.82384C189.036 10.8052 187.564 11.2958 185.687 11.2958Z" fill="white"/>
<path d="M211.377 52.6398C208.049 52.6398 205.105 52.1065 202.545 51.0398C200.027 49.9732 198.022 48.5438 196.529 46.7518L202.737 41.3758C204.059 42.6985 205.553 43.6798 207.217 44.3198C208.881 44.9172 210.459 45.2158 211.953 45.2158C212.55 45.2158 213.083 45.1518 213.553 45.0238C214.022 44.8958 214.406 44.7252 214.705 44.5118C215.046 44.2558 215.302 43.9785 215.473 43.6798C215.643 43.3385 215.729 42.9545 215.729 42.5278C215.729 41.6745 215.345 41.0132 214.577 40.5438C214.193 40.3305 213.553 40.0745 212.657 39.7758C211.761 39.4772 210.609 39.1358 209.201 38.7518C207.195 38.2398 205.446 37.6425 203.953 36.9598C202.502 36.2345 201.307 35.4025 200.369 34.4638C199.515 33.5678 198.854 32.5865 198.385 31.5198C197.915 30.4105 197.681 29.1732 197.681 27.8078C197.681 26.2292 198.043 24.7998 198.769 23.5198C199.537 22.2398 200.539 21.1305 201.777 20.1918C203.057 19.2532 204.507 18.5492 206.129 18.0798C207.793 17.5678 209.499 17.3118 211.249 17.3118C213.126 17.3118 214.918 17.5252 216.625 17.9518C218.331 18.3785 219.91 18.9758 221.361 19.7438C222.854 20.5118 224.177 21.4292 225.329 22.4958L219.953 28.5118C219.185 27.7865 218.31 27.1465 217.329 26.5918C216.39 25.9945 215.409 25.5252 214.385 25.1838C213.361 24.8425 212.422 24.6718 211.569 24.6718C210.929 24.6718 210.353 24.7358 209.841 24.8638C209.371 24.9492 208.966 25.1198 208.625 25.3758C208.283 25.5892 208.027 25.8665 207.857 26.2078C207.686 26.5065 207.601 26.8692 207.601 27.2958C207.601 27.7225 207.707 28.1278 207.921 28.5118C208.177 28.8958 208.518 29.2158 208.945 29.4718C209.371 29.7278 210.054 30.0265 210.993 30.3678C211.931 30.6665 213.211 31.0505 214.833 31.5198C216.838 32.0745 218.566 32.6932 220.017 33.3758C221.467 34.0585 222.619 34.8692 223.473 35.8078C224.155 36.5332 224.667 37.3865 225.009 38.3678C225.35 39.3065 225.521 40.3305 225.521 41.4398C225.521 43.6158 224.902 45.5572 223.665 47.2638C222.47 48.9278 220.806 50.2505 218.673 51.2318C216.539 52.1705 214.107 52.6398 211.377 52.6398Z" fill="white"/>
<path d="M162.785 51.2318C163.767 52.2132 165.132 52.7038 166.881 52.7038C168.545 52.7038 169.889 52.1705 170.913 51.1038C171.937 50.0372 172.449 48.6718 172.449 47.0078C172.449 45.1732 171.959 43.7652 170.977 42.7838C169.996 41.7598 168.631 41.2478 166.881 41.2478C165.26 41.2478 163.937 41.7812 162.913 42.8478C161.889 43.9145 161.377 45.3012 161.377 47.0078C161.377 48.8425 161.847 50.2505 162.785 51.2318Z" fill="white"/>
<path d="M81.1692 18.0158V51.9998H91.4732V31.7118C91.4732 30.9012 91.6225 30.1545 91.9212 29.4718C92.2199 28.7892 92.6252 28.1918 93.1372 27.6798C93.6918 27.1678 94.3318 26.7625 95.0572 26.4638C95.8252 26.1652 96.6572 26.0158 97.5532 26.0158C98.5772 26.0158 99.4732 26.2505 100.241 26.7198C101.009 27.1892 101.585 27.8718 101.969 28.7678C102.353 29.6638 102.545 30.7518 102.545 32.0318V51.9998H112.849V31.7758C112.849 30.9225 112.999 30.1545 113.297 29.4718C113.596 28.7892 114.001 28.1918 114.513 27.6798C115.068 27.1678 115.708 26.7625 116.433 26.4638C117.201 26.1652 118.033 26.0158 118.929 26.0158C120.039 26.0158 120.956 26.2505 121.681 26.7198C122.449 27.1465 123.025 27.8078 123.409 28.7038C123.793 29.5998 123.985 30.7305 123.985 32.0958V51.9998H134.289V31.2638C134.289 28.2772 133.82 25.7385 132.881 23.6478C131.985 21.5572 130.641 19.9998 128.849 18.9758C127.057 17.9092 124.817 17.3758 122.129 17.3758C121.063 17.3758 119.953 17.5252 118.801 17.8238C117.649 18.1225 116.54 18.5705 115.473 19.1678C114.407 19.7225 113.425 20.4265 112.529 21.2798C111.869 21.9072 111.298 22.5985 110.816 23.3536C110.327 22.2738 109.746 21.3692 109.073 20.6398C108.049 19.4878 106.855 18.6558 105.489 18.1438C104.124 17.6318 102.609 17.3758 100.945 17.3758C99.8358 17.3758 98.7265 17.5252 97.6172 17.8238C96.5505 18.1225 95.5052 18.5705 94.4812 19.1678C93.4999 19.7225 92.6039 20.4265 91.7932 21.2798C91.5532 21.5465 91.3258 21.8256 91.1108 22.1172L90.8972 18.0158H81.1692Z" fill="white"/>
<path d="M58.5492 51.9999V26.9758H52.5332V18.0159H58.5492V9.43985H68.7892V18.0159H75.3812V26.9758H68.7892V51.9999H58.5492Z" fill="white"/>
<defs>
<linearGradient id="paint0_linear_702_69" x1="-27.5583" y1="65.4398" x2="-31.6469" y2="29.5548" gradientUnits="userSpaceOnUse">
<stop stop-color="#F13FD8"/>
<stop offset="1" stop-color="#9D6BF2"/>
</linearGradient>
</defs>
</svg>
