<svg width="64" height="64" viewBox="0 0 64 64" fill="none" xmlns="http://www.w3.org/2000/svg">
<path d="M10.2896 64H42.2896C45.0176 64 47.6338 62.9163 49.5627 60.9874C51.4917 59.0584 52.5753 56.4422 52.5753 53.7143V21.7143C52.5753 18.9863 51.4917 16.3701 49.5627 14.4412C47.6338 12.5122 45.0176 11.4286 42.2896 11.4286H10.2896C7.56168 11.4286 4.94547 12.5122 3.01652 14.4412C1.08757 16.3701 0.00390339 18.9863 0.00390339 21.7143V53.7143C0.00390339 56.4422 1.08757 59.0584 3.01652 60.9874C4.94547 62.9163 7.56168 64 10.2896 64Z" fill="#f5f5f5"/>
<path d="M45.7182 6.85714H12.021C12.7322 4.8532 14.046 3.11839 15.7821 1.89069C17.5183 0.663 19.5918 0.00256715 21.7182 0H53.7182C56.4461 0 59.0623 1.08367 60.9913 3.01262C62.9202 4.94156 64.0039 7.55777 64.0039 10.2857V42.2857C64.0013 44.4121 63.3409 46.4856 62.1132 48.2218C60.8855 49.9579 59.1507 51.2717 57.1468 51.9829V18.2857C57.1468 15.2547 55.9427 12.3478 53.7994 10.2045C51.6561 8.06122 48.7492 6.85714 45.7182 6.85714Z" fill="#f5f5f5"/>
</svg>
